<svg xmlns="http://www.w3.org/2000/svg" viewBox="0 0 734 105" role="img" aria-label="The Accountant — Beyond the Balance Sheet">
<g transform="translate(19.55 74) scale(0.048571)"><path d="M268 -539H772L775 -518H263ZM334 -7Q334 -4 332.0 -2.0Q330 0 326 0H-6Q-10 0 -12.0 -2.0Q-14 -4 -14 -7Q-14 -11 -11.0 -12.5Q-8 -14 -5 -15L29 -25Q63 -37 98.5 -74.5Q134 -112 156 -189L471 -1268Q484 -1311 472.5 -1336.5Q461 -1362 431 -1377Q419 -1386 413.0 -1388.0Q407 -1390 407 -1393Q407 -1397 409.5 -1398.5Q412 -1400 417 -1400H835Q840 -1400 842.0 -1398.5Q844 -1397 844 -1393Q844 -1390 839.0 -1387.0Q834 -1384 821 -1378Q799 -1374 794.0 -1364.0Q789 -1354 798 -1326L1197 -68Q1205 -45 1219.5 -32.5Q1234 -20 1256 -17Q1263 -15 1265.5 -13.0Q1268 -11 1268 -7Q1268 -4 1266.0 -2.0Q1264 0 1259 0H791Q787 0 784.5 -2.0Q782 -4 782 -7Q782 -11 785.0 -12.0Q788 -13 794 -15L839 -23Q865 -30 870.5 -43.0Q876 -56 868 -82L488 -1283L514 -1343L176 -185Q163 -143 176.0 -111.0Q189 -79 220.0 -57.5Q251 -36 295 -23L324 -15Q330 -13 332.0 -11.5Q334 -10 334 -7Z" fill="#FAF7F0"/></g><rect x="18.87" y="83" width="62.27" height="6.5" fill="#C29A3B"/><rect x="18.87" y="94" width="62.27" height="3" fill="#C29A3B"/>
<g transform="translate(124 74) scale(0.047143)"><path d="M182.63983154296875 -1400.0H1075.7581176757812Q1097.238037109375 -1400.0 1115.9979858398438 -1406.4600219726562Q1134.7579345703125 -1412.9200439453125 1148.2979125976562 -1419.3800659179688Q1161.837890625 -1425.840087890625 1166.1578979492188 -1425.840087890625Q1168.837890625 -1425.840087890625 1171.0178833007812 -1422.6600952148438Q1173.1978759765625 -1419.4801025390625 1175.5178833007812 -1404.400146484375L1238.1578979492188 -1007.601318359375Q1240.1578979492188 -1000.2013549804688 1238.9779052734375 -996.5413513183594Q1237.7979125976562 -992.88134765625 1234.7979125976562 -991.5213623046875Q1231.7979125976562 -990.8413696289062 1228.5979309082031 -992.661376953125Q1225.39794921875 -994.4813842773438 1222.7179565429688 -999.5213623046875Q1152.9583740234375 -1162.4808349609375 1095.5786743164062 -1244.1405639648438Q1038.198974609375 -1325.80029296875 987.9391174316406 -1353.1401977539062Q937.6792602539062 -1380.4801025390625 891.1192016601562 -1380.4801025390625H787.1976928710938V-54.7999267578125Q787.1976928710938 -42.7999267578125 797.4376525878906 -36.43994140625Q807.6776123046875 -30.0799560546875 827.4375610351562 -26.719970703125L903.2780151367188 -14.7999267578125Q916.0779418945312 -12.75994873046875 916.0779418945312 -6.719970703125Q916.0779418945312 0.0 905.9979858398438 0.0H358.80010986328125Q353.7601318359375 0.0 351.2401428222656 -2.17999267578125Q348.72015380859375 -4.3599853515625 348.72015380859375 -6.719970703125Q348.72015380859375 -12.75994873046875 361.52008056640625 -14.7999267578125L437.36053466796875 -26.719970703125Q457.80047607421875 -30.0799560546875 467.700439453125 -36.43994140625Q477.60040283203125 -42.7999267578125 477.60040283203125 -54.7999267578125V-1380.4801025390625H373.67889404296875Q328.91876220703125 -1380.4801025390625 279.5188903808594 -1349.7802124023438Q230.1190185546875 -1319.080322265625 171.85934448242188 -1236.9205932617188Q113.59967041015625 -1154.7608642578125 42.08013916015625 -999.5213623046875Q39.72015380859375 -994.4813842773438 36.36016845703125 -992.661376953125Q33.00018310546875 -990.8413696289062 30.00018310546875 -991.5213623046875Q27.00018310546875 -992.88134765625 26.3201904296875 -996.5413513183594Q25.64019775390625 -1000.2013549804688 26.64019775390625 -1007.601318359375L89.28021240234375 -1404.400146484375Q91.6002197265625 -1419.4801025390625 93.94021606445312 -1422.6600952148438Q96.28021240234375 -1425.840087890625 98.64019775390625 -1425.840087890625Q102.64019775390625 -1425.840087890625 114.400146484375 -1419.3800659179688Q126.16009521484375 -1412.9200439453125 143.98001098632812 -1406.4600219726562Q161.7999267578125 -1400.0 182.63983154296875 -1400.0Z M1624.6783447265625 -685.0801391601562 1613.87841796875 -696.56005859375 1650.6783447265625 -729.3200073242188Q1756.2781982421875 -823.4799194335938 1841.0179748535156 -862.3797912597656Q1925.7577514648438 -901.2796630859375 1997.1976928710938 -901.2796630859375Q2094.6777954101562 -901.2796630859375 2156.9978942871094 -841.5995788574219Q2219.3179931640625 -781.9194946289062 2219.3179931640625 -653.0394287109375V-61.43994140625Q2219.3179931640625 -45.43994140625 2226.4180297851562 -35.61993408203125Q2233.51806640625 -25.7999267578125 2248.4381103515625 -22.7999267578125L2294.75830078125 -14.11993408203125Q2300.478271484375 -13.43994140625 2302.6582641601562 -11.419952392578125Q2304.8382568359375 -9.39996337890625 2304.8382568359375 -6.719970703125Q2304.8382568359375 -3.67999267578125 2302.6582641601562 -1.839996337890625Q2300.478271484375 0.0 2296.1182861328125 0.0H1874.599853515625Q1865.2398681640625 0.0 1865.2398681640625 -6.719970703125Q1865.2398681640625 -12.719970703125 1876.599853515625 -14.75994873046875L1929.3201904296875 -24.0799560546875Q1945.240234375 -27.0799560546875 1950.5602416992188 -36.89996337890625Q1955.8802490234375 -46.719970703125 1955.8802490234375 -61.43994140625V-625.919677734375Q1955.8802490234375 -709.3601684570312 1919.7399597167969 -747.4403991699219Q1883.5996704101562 -785.5206298828125 1820.279296875 -785.5206298828125Q1780.6790771484375 -785.5206298828125 1740.2788391113281 -768.8805236816406Q1699.8786010742188 -752.2404174804688 1660.1182861328125 -716.4801025390625ZM1647.63818359375 -1477.4395751953125V-56.9598388671875Q1647.63818359375 -43.19989013671875 1653.2981872558594 -34.97991943359375Q1658.9581909179688 -26.75994873046875 1671.63818359375 -24.0799560546875L1723.0784912109375 -14.75994873046875Q1733.7984619140625 -12.719970703125 1733.7984619140625 -6.719970703125Q1733.7984619140625 0.0 1725.0784912109375 0.0H1304.840087890625Q1301.8001098632812 0.0 1299.2801208496094 -1.839996337890625Q1296.7601318359375 -3.67999267578125 1296.7601318359375 -6.719970703125Q1296.7601318359375 -9.39996337890625 1299.5801391601562 -11.89996337890625Q1302.400146484375 -14.39996337890625 1309.400146484375 -15.39996337890625L1360.200439453125 -24.0799560546875Q1373.5604248046875 -26.75994873046875 1378.8804321289062 -34.97991943359375Q1384.200439453125 -43.19989013671875 1384.200439453125 -56.31982421875V-1371.7601318359375Q1384.200439453125 -1378.1600952148438 1381.0004577636719 -1381.6800842285156Q1377.8004760742188 -1385.2000732421875 1370.0805053710938 -1385.2000732421875H1310.280029296875Q1305.2000732421875 -1385.2000732421875 1303.0200805664062 -1387.3800659179688Q1300.840087890625 -1389.56005859375 1300.840087890625 -1392.6000366210938Q1300.840087890625 -1396.280029296875 1303.3600769042969 -1397.9600219726562Q1305.8800659179688 -1399.6400146484375 1309.56005859375 -1400.6400146484375L1614.6383666992188 -1485.4795532226562Q1624.3983154296875 -1488.1595458984375 1628.0982971191406 -1488.8395385742188Q1631.7982788085938 -1489.51953125 1636.1982421875 -1489.51953125Q1641.918212890625 -1489.51953125 1644.7781982421875 -1485.9995422363281Q1647.63818359375 -1482.4795532226562 1647.63818359375 -1477.4395751953125Z M3179.2783813476562 -512.640380859375Q3179.2783813476562 -503.92041015625 3173.578399658203 -498.200439453125Q3167.87841796875 -492.48046875 3155.7584838867188 -492.48046875H2534.8786010742188V-511.3603515625H2900.5606079101562Q2917.2805786132812 -511.3603515625 2917.2805786132812 -530.80029296875Q2917.2805786132812 -713.2398681640625 2871.9803771972656 -798.81982421875Q2826.68017578125 -884.3997802734375 2764.9596557617188 -884.3997802734375Q2714.59912109375 -884.3997802734375 2677.1987915039062 -847.8995971679688Q2639.7984619140625 -811.3994140625 2618.738311767578 -734.0392456054688Q2597.6781616210938 -656.6790771484375 2597.6781616210938 -534.9591064453125Q2597.6781616210938 -328.59912109375 2683.398223876953 -227.37896728515625Q2769.1182861328125 -126.1588134765625 2908.3983154296875 -126.1588134765625Q3013.3181762695312 -126.1588134765625 3084.0982055664062 -183.09884643554688Q3154.8782348632812 -240.03887939453125 3161.9183959960938 -336.87896728515625Q3162.2384033203125 -341.23895263671875 3164.2583923339844 -342.73895263671875Q3166.2783813476562 -344.23895263671875 3167.2783813476562 -344.23895263671875Q3169.9583740234375 -344.23895263671875 3172.1383666992188 -342.3989562988281Q3174.318359375 -340.5589599609375 3173.9983520507812 -334.87896728515625Q3169.5182495117188 -233.3592529296875 3116.818359375 -153.0994873046875Q3064.1184692382812 -72.8397216796875 2976.6387329101562 -26.41986083984375Q2889.1589965820312 20.0 2779.83935546875 20.0Q2653.7595825195312 20.0 2557.7197875976562 -35.43994140625Q2461.6799926757812 -90.8798828125 2407.4401245117188 -191.15982055664062Q2353.2002563476562 -291.43975830078125 2353.2002563476562 -424.479736328125Q2353.2002563476562 -568.07958984375 2407.880157470703 -675.4195861816406Q2462.56005859375 -782.7595825195312 2562.4198608398438 -842.3396301269531Q2662.2796630859375 -901.919677734375 2796.7993774414062 -901.919677734375Q2913.7190551757812 -901.919677734375 2999.4588317871094 -851.2397766113281Q3085.1986083984375 -800.5598754882812 3132.238494873047 -712.6000366210938Q3179.2783813476562 -624.6401977539062 3179.2783813476562 -512.640380859375Z M3796.2400512695312 -538.56005859375H4300.000549316406L4303.360534667969 -518.400146484375H3790.8800659179688ZM3862.198974609375 -6.719970703125Q3862.198974609375 -4.3599853515625 3860.178985595703 -2.17999267578125Q3858.1589965820312 0.0 3854.1190185546875 0.0H3521.960205078125Q3518.240234375 0.0 3516.0602416992188 -2.17999267578125Q3513.8802490234375 -4.3599853515625 3513.8802490234375 -6.719970703125Q3513.8802490234375 -10.75994873046875 3517.0802307128906 -12.43994140625Q3520.2802124023438 -14.11993408203125 3523.3201904296875 -14.7999267578125L3557.4005126953125 -25.32000732421875Q3591.4003295898438 -37.11993408203125 3626.5000915527344 -74.75967407226562Q3661.599853515625 -112.3994140625 3684.0797729492188 -188.9591064453125L3999.3605346679688 -1268.1210327148438Q4011.8404541015625 -1310.720703125 4000.3004760742188 -1336.4005126953125Q3988.760498046875 -1362.080322265625 3958.8804321289062 -1377.0401611328125Q3946.7205200195312 -1385.8800659179688 3940.6405639648438 -1388.06005859375Q3934.5606079101562 -1390.2400512695312 3934.5606079101562 -1393.280029296875Q3934.5606079101562 -1397.3200073242188 3937.080596923828 -1398.6600036621094Q3939.6005859375 -1400.0 3944.6405639648438 -1400.0H4362.877868652344Q4367.597839355469 -1400.0 4369.957824707031 -1398.6600036621094Q4372.317810058594 -1397.3200073242188 4372.317810058594 -1393.280029296875Q4372.317810058594 -1390.2400512695312 4367.077850341797 -1387.0400695800781Q4361.837890625 -1383.840087890625 4348.638000488281 -1378.400146484375Q4326.997802734375 -1374.3201904296875 4322.017791748047 -1364.0602416992188Q4317.037780761719 -1353.80029296875 4325.757751464844 -1325.92041015625L4725.198059082031 -67.5198974609375Q4732.838073730469 -44.599853515625 4747.578125 -32.41986083984375Q4762.318176269531 -20.2398681640625 4784.078308105469 -16.83990478515625Q4790.8382568359375 -14.7999267578125 4793.538238525391 -12.779937744140625Q4796.238220214844 -10.75994873046875 4796.238220214844 -6.719970703125Q4796.238220214844 -4.3599853515625 4793.878234863281 -2.17999267578125Q4791.518249511719 0.0 4786.798278808594 0.0H4319.040710449219Q4314.6407470703125 0.0 4312.120758056641 -2.17999267578125Q4309.600769042969 -4.3599853515625 4309.600769042969 -6.719970703125Q4309.600769042969 -10.75994873046875 4312.78076171875 -11.75994873046875Q4315.960754394531 -12.75994873046875 4322.400695800781 -14.7999267578125L4367.280944824219 -22.8798828125Q4392.7608642578125 -29.63983154296875 4398.40087890625 -42.979827880859375Q4404.0408935546875 -56.31982421875 4396.000915527344 -81.8397216796875L4016.2404174804688 -1283.4410400390625L4041.8402709960938 -1342.5604248046875L3703.5596923828125 -184.879150390625Q3691.1597290039062 -142.59930419921875 3703.879608154297 -110.8194580078125Q3716.5994873046875 -79.03961181640625 3747.8192749023438 -57.459747314453125Q3779.0390625 -35.8798828125 3822.518798828125 -22.719970703125L3852.1190185546875 -14.7999267578125Q3857.8389892578125 -13.43994140625 3860.0189819335938 -11.75994873046875Q3862.198974609375 -10.0799560546875 3862.198974609375 -6.719970703125Z M5621.6787109375 -660.6401977539062Q5621.6787109375 -603.2406005859375 5589.098937988281 -568.6608276367188Q5556.5191650390625 -534.0810546875 5499.039611816406 -534.0810546875Q5440.56005859375 -534.0810546875 5406.80029296875 -569.8608093261719Q5373.04052734375 -605.6405639648438 5373.04052734375 -673.2000732421875V-751.4395751953125Q5373.04052734375 -813.6796264648438 5342.480285644531 -848.5197143554688Q5311.9200439453125 -883.3598022460938 5259.399597167969 -883.3598022460938Q5204.879150390625 -883.3598022460938 5164.318817138672 -842.6196594238281Q5123.758483886719 -801.8795166015625 5101.938293457031 -726.5793151855469Q5080.118103027344 -651.2791137695312 5080.118103027344 -547.2789306640625Q5080.118103027344 -416.39886474609375 5116.978179931641 -326.3188171386719Q5153.8382568359375 -236.23876953125 5218.138366699219 -190.11874389648438Q5282.4384765625 -143.99871826171875 5364.598571777344 -143.99871826171875Q5455.518615722656 -143.99871826171875 5519.358703613281 -183.01889038085938Q5583.198791503906 -222.0390625 5604.958923339844 -305.83935546875Q5605.958923339844 -309.87933349609375 5607.978912353516 -311.559326171875Q5609.9989013671875 -313.23931884765625 5612.35888671875 -312.559326171875Q5615.038879394531 -311.87933349609375 5616.2188720703125 -309.3593444824219Q5617.398864746094 -306.83935546875 5616.398864746094 -302.79937744140625Q5597.478820800781 -200.47955322265625 5545.158905029297 -128.71969604492188Q5492.8389892578125 -56.9598388671875 5413.2991943359375 -18.959930419921875Q5333.7593994140625 19.03997802734375 5231.519714355469 19.03997802734375Q5116.5198974609375 19.03997802734375 5025.6400146484375 -30.780029296875Q4934.7601318359375 -80.60003662109375 4882.160186767578 -178.62002563476562Q4829.560241699219 -276.6400146484375 4829.560241699219 -420.719970703125Q4829.560241699219 -558.6798095703125 4886.920135498047 -667.1197509765625Q4944.280029296875 -775.5596923828125 5045.579864501953 -838.7396850585938Q5146.879699707031 -901.919677734375 5279.239501953125 -901.919677734375Q5391.1591796875 -901.919677734375 5467.139007568359 -870.1397399902344Q5543.118835449219 -838.3598022460938 5582.398773193359 -783.8199157714844Q5621.6787109375 -729.280029296875 5621.6787109375 -660.6401977539062Z M6474.6787109375 -660.6401977539062Q6474.6787109375 -603.2406005859375 6442.098937988281 -568.6608276367188Q6409.5191650390625 -534.0810546875 6352.039611816406 -534.0810546875Q6293.56005859375 -534.0810546875 6259.80029296875 -569.8608093261719Q6226.04052734375 -605.6405639648438 6226.04052734375 -673.2000732421875V-751.4395751953125Q6226.04052734375 -813.6796264648438 6195.480285644531 -848.5197143554688Q6164.9200439453125 -883.3598022460938 6112.399597167969 -883.3598022460938Q6057.879150390625 -883.3598022460938 6017.318817138672 -842.6196594238281Q5976.758483886719 -801.8795166015625 5954.938293457031 -726.5793151855469Q5933.118103027344 -651.2791137695312 5933.118103027344 -547.2789306640625Q5933.118103027344 -416.39886474609375 5969.978179931641 -326.3188171386719Q6006.8382568359375 -236.23876953125 6071.138366699219 -190.11874389648438Q6135.4384765625 -143.99871826171875 6217.598571777344 -143.99871826171875Q6308.518615722656 -143.99871826171875 6372.358703613281 -183.01889038085938Q6436.198791503906 -222.0390625 6457.958923339844 -305.83935546875Q6458.958923339844 -309.87933349609375 6460.978912353516 -311.559326171875Q6462.9989013671875 -313.23931884765625 6465.35888671875 -312.559326171875Q6468.038879394531 -311.87933349609375 6469.2188720703125 -309.3593444824219Q6470.398864746094 -306.83935546875 6469.398864746094 -302.79937744140625Q6450.478820800781 -200.47955322265625 6398.158905029297 -128.71969604492188Q6345.8389892578125 -56.9598388671875 6266.2991943359375 -18.959930419921875Q6186.7593994140625 19.03997802734375 6084.519714355469 19.03997802734375Q5969.5198974609375 19.03997802734375 5878.6400146484375 -30.780029296875Q5787.7601318359375 -80.60003662109375 5735.160186767578 -178.62002563476562Q5682.560241699219 -276.6400146484375 5682.560241699219 -420.719970703125Q5682.560241699219 -558.6798095703125 5739.920135498047 -667.1197509765625Q5797.280029296875 -775.5596923828125 5898.579864501953 -838.7396850585938Q5999.879699707031 -901.919677734375 6132.239501953125 -901.919677734375Q6244.1591796875 -901.919677734375 6320.139007568359 -870.1397399902344Q6396.118835449219 -838.3598022460938 6435.398773193359 -783.8199157714844Q6474.6787109375 -729.280029296875 6474.6787109375 -660.6401977539062Z M7010.999450683594 -901.2796630859375Q7145.039245605469 -901.2796630859375 7248.4591064453125 -842.2396850585938Q7351.878967285156 -783.19970703125 7410.9989013671875 -678.4597473144531Q7470.118835449219 -573.7197875976562 7470.118835449219 -436.9598388671875Q7470.118835449219 -302.2398681640625 7409.298919677734 -199.33990478515625Q7348.47900390625 -96.43994140625 7242.199157714844 -38.219970703125Q7135.9193115234375 20.0 6998.199523925781 20.0Q6864.159729003906 20.0 6761.059875488281 -37.879974365234375Q6657.960021972656 -95.75994873046875 6599.4801025390625 -198.659912109375Q6541.000183105469 -301.55987548828125 6541.000183105469 -436.9598388671875Q6541.000183105469 -571.9998168945312 6601.380065917969 -676.5797729492188Q6661.759948730469 -781.1597290039062 6767.8997802734375 -841.2196960449219Q6874.039611816406 -901.2796630859375 7010.999450683594 -901.2796630859375ZM7061.9193115234375 2.56005859375Q7118.3997802734375 -3.0799560546875 7153.500183105469 -56.480010986328125Q7188.6005859375 -109.88006591796875 7199.280853271484 -211.04006958007812Q7209.961120605469 -312.2000732421875 7191.801208496094 -459.75994873046875Q7173.641296386719 -608.2798461914062 7139.461120605469 -704.3398132324219Q7105.280944824219 -800.3997802734375 7057.640563964844 -844.7397766113281Q7010.000183105469 -889.0797729492188 6950.599670410156 -882.759765625Q6892.559143066406 -876.4397583007812 6857.618743896484 -822.2396850585938Q6822.6783447265625 -768.0396118164062 6813.638092041016 -667.3995971679688Q6804.597839355469 -566.7595825195312 6822.0777587890625 -420.479736328125Q6840.2376708984375 -274.5198974609375 6874.717864990234 -178.2999267578125Q6909.198059082031 -82.0799560546875 6956.998443603516 -36.93994140625Q7004.798828125 8.2000732421875 7061.9193115234375 2.56005859375Z M8188.680358886719 -27.7601318359375V-162.31982421875V-168.039794921875V-780.3201904296875Q8188.680358886719 -786.7201538085938 8185.480377197266 -790.2401428222656Q8182.2803955078125 -793.7601318359375 8174.5604248046875 -793.7601318359375H8114.759948730469Q8109.679992675781 -793.7601318359375 8107.5 -795.9401245117188Q8105.320007324219 -798.1201171875 8105.320007324219 -801.1600952148438Q8105.320007324219 -804.840087890625 8107.839996337891 -806.5200805664062Q8110.3599853515625 -808.2000732421875 8114.039978027344 -809.2000732421875L8419.118286132812 -894.0396118164062Q8428.1982421875 -896.7196044921875 8432.238220214844 -897.3995971679688Q8436.278198242188 -898.07958984375 8440.678161621094 -898.07958984375Q8446.398132324219 -898.07958984375 8449.258117675781 -894.5596008300781Q8452.118103027344 -891.0396118164062 8452.118103027344 -885.9996337890625V-56.9598388671875Q8452.118103027344 -43.19989013671875 8457.778106689453 -34.97991943359375Q8463.438110351562 -26.75994873046875 8476.118103027344 -24.0799560546875L8527.558410644531 -14.75994873046875Q8533.918395996094 -14.0799560546875 8536.098388671875 -11.89996337890625Q8538.278381347656 -9.719970703125 8538.278381347656 -6.719970703125Q8538.278381347656 -3.67999267578125 8536.098388671875 -1.839996337890625Q8533.918395996094 0.0 8529.558410644531 0.0H8214.600402832031Q8201.960388183594 0.0 8195.320373535156 -7.120025634765625Q8188.680358886719 -14.24005126953125 8188.680358886719 -27.7601318359375ZM7620.4005126953125 -230.80029296875V-780.3201904296875Q7620.4005126953125 -786.7201538085938 7617.04052734375 -790.2401428222656Q7613.6805419921875 -793.7601318359375 7605.640563964844 -793.7601318359375H7545.840087890625Q7540.7601318359375 -793.7601318359375 7538.580139160156 -795.9401245117188Q7536.400146484375 -798.1201171875 7536.400146484375 -801.1600952148438Q7536.400146484375 -804.840087890625 7538.920135498047 -806.5200805664062Q7541.440124511719 -808.2000732421875 7545.1201171875 -809.2000732421875L7850.838439941406 -894.0396118164062Q7860.598388671875 -896.7196044921875 7864.298370361328 -897.3995971679688Q7867.998352050781 -898.07958984375 7872.3983154296875 -898.07958984375Q7878.1182861328125 -898.07958984375 7880.978271484375 -894.5596008300781Q7883.8382568359375 -891.0396118164062 7883.8382568359375 -885.9996337890625V-257.9200439453125Q7883.8382568359375 -175.1595458984375 7920.1385498046875 -136.73931884765625Q7956.4388427734375 -98.319091796875 8019.439208984375 -98.319091796875Q8059.0394287109375 -98.319091796875 8099.7796630859375 -115.11920166015625Q8140.5198974609375 -131.9193115234375 8179.6002197265625 -167.359619140625L8215.040161132812 -198.75958251953125L8225.840087890625 -187.2796630859375L8189.0401611328125 -154.51971435546875Q8083.760314941406 -61.35980224609375 7998.860534667969 -21.959930419921875Q7913.960754394531 17.43994140625 7842.520812988281 17.43994140625Q7745.3607177734375 17.43994140625 7682.880615234375 -42.240142822265625Q7620.4005126953125 -101.92022705078125 7620.4005126953125 -230.80029296875Z M8945.63818359375 -888.7196044921875V-56.9598388671875Q8945.63818359375 -43.19989013671875 8951.29818725586 -34.97991943359375Q8956.958190917969 -26.75994873046875 8969.63818359375 -24.0799560546875L9021.078491210938 -14.75994873046875Q9031.798461914062 -12.719970703125 9031.798461914062 -6.719970703125Q9031.798461914062 0.0 9023.078491210938 0.0H8602.840087890625Q8599.800109863281 0.0 8597.28012084961 -1.839996337890625Q8594.760131835938 -3.67999267578125 8594.760131835938 -6.719970703125Q8594.760131835938 -9.0799560546875 8596.940124511719 -11.099945068359375Q8599.1201171875 -13.11993408203125 8604.840087890625 -14.11993408203125L8658.200439453125 -24.0799560546875Q8671.560424804688 -26.75994873046875 8676.880432128906 -34.97991943359375Q8682.200439453125 -43.19989013671875 8682.200439453125 -56.31982421875V-783.0401611328125Q8682.200439453125 -789.4401245117188 8679.000457763672 -792.9601135253906Q8675.800476074219 -796.4801025390625 8668.080505371094 -796.4801025390625H8608.280029296875Q8603.200073242188 -796.4801025390625 8601.020080566406 -798.6600952148438Q8598.840087890625 -800.840087890625 8598.840087890625 -803.8800659179688Q8598.840087890625 -807.56005859375 8601.360076904297 -809.2400512695312Q8603.880065917969 -810.9200439453125 8607.56005859375 -811.9200439453125L8912.638366699219 -896.7595825195312Q8922.398315429688 -899.4395751953125 8926.09829711914 -900.1195678710938Q8929.798278808594 -900.799560546875 8934.1982421875 -900.799560546875Q8939.918212890625 -900.799560546875 8942.778198242188 -897.2795715332031Q8945.63818359375 -893.7595825195312 8945.63818359375 -888.7196044921875ZM8922.678344726562 -685.0801391601562 8911.87841796875 -696.56005859375 8948.678344726562 -729.3200073242188Q9054.278198242188 -823.4799194335938 9139.017974853516 -862.3797912597656Q9223.757751464844 -901.2796630859375 9295.197692871094 -901.2796630859375Q9392.677795410156 -901.2796630859375 9454.99789428711 -841.5995788574219Q9517.317993164062 -781.9194946289062 9517.317993164062 -653.0394287109375V-61.43994140625Q9517.317993164062 -45.43994140625 9524.418029785156 -35.61993408203125Q9531.51806640625 -25.7999267578125 9546.438110351562 -22.7999267578125L9592.75830078125 -14.11993408203125Q9598.478271484375 -13.43994140625 9600.658264160156 -11.419952392578125Q9602.838256835938 -9.39996337890625 9602.838256835938 -6.719970703125Q9602.838256835938 -3.67999267578125 9600.658264160156 -1.839996337890625Q9598.478271484375 0.0 9594.118286132812 0.0H9172.599853515625Q9163.239868164062 0.0 9163.239868164062 -6.719970703125Q9163.239868164062 -12.719970703125 9174.599853515625 -14.75994873046875L9227.320190429688 -24.0799560546875Q9243.240234375 -27.0799560546875 9248.560241699219 -36.89996337890625Q9253.880249023438 -46.719970703125 9253.880249023438 -61.43994140625V-625.919677734375Q9253.880249023438 -709.3601684570312 9217.739959716797 -747.4403991699219Q9181.599670410156 -785.5206298828125 9118.279296875 -785.5206298828125Q9078.679077148438 -785.5206298828125 9038.278839111328 -768.8805236816406Q8997.878601074219 -752.2404174804688 8958.118286132812 -716.4801025390625Z M9720.48046875 -847.759765625 9636.240234375 -865.8397216796875Q9630.520263671875 -867.5197143554688 9628.340270996094 -869.5397033691406Q9626.160278320312 -871.5596923828125 9626.160278320312 -874.5596923828125Q9626.160278320312 -877.2396850585938 9628.340270996094 -879.2596740722656Q9630.520263671875 -881.2796630859375 9632.880249023438 -881.2796630859375H9719.280395507812Q9725.160461425781 -881.2796630859375 9729.300476074219 -883.0796813964844Q9733.440490722656 -884.8796997070312 9737.840454101562 -889.8397216796875L9950.478637695312 -1083.0394287109375Q9956.55859375 -1088.0794067382812 9962.83853149414 -1091.2793884277344Q9969.118469238281 -1094.4793701171875 9974.158447265625 -1094.4793701171875Q9980.238403320312 -1094.4793701171875 9983.958374023438 -1090.4194030761719Q9987.678344726562 -1086.3594360351562 9987.678344726562 -1078.239501953125V-242.638916015625Q9987.678344726562 -160.0390625 10018.558319091797 -119.7391357421875Q10049.438293457031 -79.439208984375 10102.478271484375 -79.439208984375Q10121.438293457031 -79.439208984375 10138.578308105469 -85.11920166015625Q10155.718322753906 -90.7991943359375 10170.358337402344 -103.5191650390625Q10184.998352050781 -116.2391357421875 10196.47836303711 -137.19906616210938Q10207.958374023438 -158.15899658203125 10215.598388671875 -188.7188720703125Q10217.598388671875 -195.11883544921875 10222.318359375 -194.798828125Q10227.038330078125 -194.47882080078125 10225.038330078125 -187.4388427734375Q10209.398315429688 -117.71923828125 10179.898406982422 -72.239501953125Q10150.398498535156 -26.759765625 10103.298736572266 -4.33990478515625Q10056.198974609375 18.0799560546875 9987.759399414062 18.0799560546875Q9865.359985351562 18.0799560546875 9799.560241699219 -39.35980224609375Q9733.760498046875 -96.799560546875 9733.760498046875 -216.3990478515625V-829.1197509765625Q9733.760498046875 -837.7997436523438 9731.280487060547 -842.2797546386719Q9728.800476074219 -846.759765625 9720.48046875 -847.759765625ZM9907.998901367188 -859.759765625 9916.158813476562 -881.2796630859375H10219.118286132812Q10224.118286132812 -881.2796630859375 10226.298278808594 -879.7796630859375Q10228.478271484375 -878.2796630859375 10228.478271484375 -873.919677734375Q10228.478271484375 -868.19970703125 10221.75830078125 -863.979736328125Q10215.038330078125 -859.759765625 10202.958374023438 -859.759765625Z M10795.840270996094 -92.67999267578125V-102.83990478515625L10783.280395507812 -91.280029296875V-752.7984619140625Q10783.280395507812 -817.2791137695312 10755.820190429688 -852.1994323730469Q10728.359985351562 -887.1197509765625 10678.319458007812 -887.1197509765625Q10621.278930664062 -887.1197509765625 10592.638732910156 -857.799560546875Q10563.99853515625 -828.4793701171875 10563.99853515625 -789.9193115234375V-703.759765625Q10563.99853515625 -650.5200805664062 10525.63882446289 -612.9803771972656Q10487.279113769531 -575.440673828125 10426.719604492188 -575.440673828125Q10384.519897460938 -575.440673828125 10357.020080566406 -600.6805419921875Q10329.520263671875 -625.92041015625 10329.520263671875 -677.1201171875Q10329.520263671875 -729.8800659179688 10372.560150146484 -781.7399597167969Q10415.600036621094 -833.599853515625 10500.539794921875 -867.759765625Q10585.479553222656 -901.919677734375 10710.199157714844 -901.919677734375Q10880.11865234375 -901.919677734375 10964.098388671875 -832.0797729492188Q11048.078125 -762.2398681640625 11048.078125 -633.7601318359375V-119.919677734375Q11048.078125 -86.95947265625 11060.018157958984 -72.07940673828125Q11071.958190917969 -57.1993408203125 11089.518249511719 -57.1993408203125Q11106.438293457031 -57.1993408203125 11120.778289794922 -68.37933349609375Q11135.118286132812 -79.559326171875 11138.478271484375 -106.0792236328125Q11139.158264160156 -110.11920166015625 11140.658264160156 -111.45919799804688Q11142.158264160156 -112.7991943359375 11143.838256835938 -112.7991943359375Q11146.518249511719 -112.7991943359375 11147.6982421875 -111.45919799804688Q11148.878234863281 -110.11920166015625 11148.878234863281 -106.0792236328125Q11148.878234863281 -86.59930419921875 11130.338348388672 -57.239501953125Q11111.798461914062 -27.87969970703125 11069.778747558594 -4.7398681640625Q11027.759033203125 18.39996337890625 10956.799560546875 18.39996337890625Q10872.0 18.39996337890625 10833.920135498047 -13.17999267578125Q10795.840270996094 -44.75994873046875 10795.840270996094 -92.67999267578125ZM10278.000366210938 -195.5198974609375Q10278.000366210938 -306.59967041015625 10370.18017578125 -373.3396301269531Q10462.359985351562 -440.07958984375 10666.079223632812 -440.07958984375Q10724.51953125 -440.07958984375 10761.059783935547 -428.4995422363281Q10797.600036621094 -416.91949462890625 10828.880249023438 -398.95947265625L10820.80029296875 -391.5994873046875Q10788.800109863281 -407.51953125 10756.439849853516 -415.7196044921875Q10724.07958984375 -423.919677734375 10683.279296875 -423.919677734375Q10614.638732910156 -423.919677734375 10577.27847290039 -374.7196044921875Q10539.918212890625 -325.51953125 10539.918212890625 -233.359619140625Q10539.918212890625 -144.95965576171875 10576.358428955078 -100.31954956054688Q10612.798645019531 -55.679443359375 10671.119018554688 -55.679443359375Q10708.83935546875 -55.679443359375 10746.119659423828 -74.89950561523438Q10783.399963378906 -94.11956787109375 10807.640197753906 -128.3997802734375L10819.080139160156 -121.6798095703125Q10776.520080566406 -53.47991943359375 10699.820098876953 -17.379974365234375Q10623.1201171875 18.719970703125 10534.400146484375 18.719970703125Q10421.320190429688 18.719970703125 10349.660278320312 -41.3599853515625Q10278.000366210938 -101.43994140625 10278.000366210938 -195.5198974609375Z M11550.63818359375 -888.7196044921875V-56.9598388671875Q11550.63818359375 -43.19989013671875 11556.29818725586 -34.97991943359375Q11561.958190917969 -26.75994873046875 11574.63818359375 -24.0799560546875L11626.078491210938 -14.75994873046875Q11636.798461914062 -12.719970703125 11636.798461914062 -6.719970703125Q11636.798461914062 0.0 11628.078491210938 0.0H11207.840087890625Q11204.800109863281 0.0 11202.28012084961 -1.839996337890625Q11199.760131835938 -3.67999267578125 11199.760131835938 -6.719970703125Q11199.760131835938 -9.0799560546875 11201.940124511719 -11.099945068359375Q11204.1201171875 -13.11993408203125 11209.840087890625 -14.11993408203125L11263.200439453125 -24.0799560546875Q11276.560424804688 -26.75994873046875 11281.880432128906 -34.97991943359375Q11287.200439453125 -43.19989013671875 11287.200439453125 -56.31982421875V-783.0401611328125Q11287.200439453125 -789.4401245117188 11284.000457763672 -792.9601135253906Q11280.800476074219 -796.4801025390625 11273.080505371094 -796.4801025390625H11213.280029296875Q11208.200073242188 -796.4801025390625 11206.020080566406 -798.6600952148438Q11203.840087890625 -800.840087890625 11203.840087890625 -803.8800659179688Q11203.840087890625 -807.56005859375 11206.360076904297 -809.2400512695312Q11208.880065917969 -810.9200439453125 11212.56005859375 -811.9200439453125L11517.638366699219 -896.7595825195312Q11527.398315429688 -899.4395751953125 11531.09829711914 -900.1195678710938Q11534.798278808594 -900.799560546875 11539.1982421875 -900.799560546875Q11544.918212890625 -900.799560546875 11547.778198242188 -897.2795715332031Q11550.63818359375 -893.7595825195312 11550.63818359375 -888.7196044921875ZM11527.678344726562 -685.0801391601562 11516.87841796875 -696.56005859375 11553.678344726562 -729.3200073242188Q11659.278198242188 -823.4799194335938 11744.017974853516 -862.3797912597656Q11828.757751464844 -901.2796630859375 11900.197692871094 -901.2796630859375Q11997.677795410156 -901.2796630859375 12059.99789428711 -841.5995788574219Q12122.317993164062 -781.9194946289062 12122.317993164062 -653.0394287109375V-61.43994140625Q12122.317993164062 -45.43994140625 12129.418029785156 -35.61993408203125Q12136.51806640625 -25.7999267578125 12151.438110351562 -22.7999267578125L12197.75830078125 -14.11993408203125Q12203.478271484375 -13.43994140625 12205.658264160156 -11.419952392578125Q12207.838256835938 -9.39996337890625 12207.838256835938 -6.719970703125Q12207.838256835938 -3.67999267578125 12205.658264160156 -1.839996337890625Q12203.478271484375 0.0 12199.118286132812 0.0H11777.599853515625Q11768.239868164062 0.0 11768.239868164062 -6.719970703125Q11768.239868164062 -12.719970703125 11779.599853515625 -14.75994873046875L11832.320190429688 -24.0799560546875Q11848.240234375 -27.0799560546875 11853.560241699219 -36.89996337890625Q11858.880249023438 -46.719970703125 11858.880249023438 -61.43994140625V-625.919677734375Q11858.880249023438 -709.3601684570312 11822.739959716797 -747.4403991699219Q11786.599670410156 -785.5206298828125 11723.279296875 -785.5206298828125Q11683.679077148438 -785.5206298828125 11643.278839111328 -768.8805236816406Q11602.878601074219 -752.2404174804688 11563.118286132812 -716.4801025390625Z M12325.48046875 -847.759765625 12241.240234375 -865.8397216796875Q12235.520263671875 -867.5197143554688 12233.340270996094 -869.5397033691406Q12231.160278320312 -871.5596923828125 12231.160278320312 -874.5596923828125Q12231.160278320312 -877.2396850585938 12233.340270996094 -879.2596740722656Q12235.520263671875 -881.2796630859375 12237.880249023438 -881.2796630859375H12324.280395507812Q12330.160461425781 -881.2796630859375 12334.300476074219 -883.0796813964844Q12338.440490722656 -884.8796997070312 12342.840454101562 -889.8397216796875L12555.478637695312 -1083.0394287109375Q12561.55859375 -1088.0794067382812 12567.83853149414 -1091.2793884277344Q12574.118469238281 -1094.4793701171875 12579.158447265625 -1094.4793701171875Q12585.238403320312 -1094.4793701171875 12588.958374023438 -1090.4194030761719Q12592.678344726562 -1086.3594360351562 12592.678344726562 -1078.239501953125V-242.638916015625Q12592.678344726562 -160.0390625 12623.558319091797 -119.7391357421875Q12654.438293457031 -79.439208984375 12707.478271484375 -79.439208984375Q12726.438293457031 -79.439208984375 12743.578308105469 -85.11920166015625Q12760.718322753906 -90.7991943359375 12775.358337402344 -103.5191650390625Q12789.998352050781 -116.2391357421875 12801.47836303711 -137.19906616210938Q12812.958374023438 -158.15899658203125 12820.598388671875 -188.7188720703125Q12822.598388671875 -195.11883544921875 12827.318359375 -194.798828125Q12832.038330078125 -194.47882080078125 12830.038330078125 -187.4388427734375Q12814.398315429688 -117.71923828125 12784.898406982422 -72.239501953125Q12755.398498535156 -26.759765625 12708.298736572266 -4.33990478515625Q12661.198974609375 18.0799560546875 12592.759399414062 18.0799560546875Q12470.359985351562 18.0799560546875 12404.560241699219 -39.35980224609375Q12338.760498046875 -96.799560546875 12338.760498046875 -216.3990478515625V-829.1197509765625Q12338.760498046875 -837.7997436523438 12336.280487060547 -842.2797546386719Q12333.800476074219 -846.759765625 12325.48046875 -847.759765625ZM12512.998901367188 -859.759765625 12521.158813476562 -881.2796630859375H12824.118286132812Q12829.118286132812 -881.2796630859375 12831.298278808594 -879.7796630859375Q12833.478271484375 -878.2796630859375 12833.478271484375 -873.919677734375Q12833.478271484375 -868.19970703125 12826.75830078125 -863.979736328125Q12820.038330078125 -859.759765625 12807.958374023438 -859.759765625Z" fill="#FAF7F0"/></g>
<g transform="translate(124 100.0) scale(0.026978)"><path d="M76 0V-686H450Q505 -686 548.5 -665.0Q592 -644 617.0 -606.0Q642 -568 642 -517Q642 -478 627.0 -446.0Q612 -414 586.5 -392.5Q561 -371 529 -360V-356Q567 -348 597.0 -325.5Q627 -303 644.0 -268.5Q661 -234 661 -189Q661 -125 632.5 -83.0Q604 -41 556.5 -20.5Q509 0 450 0ZM206 -111H433Q474 -111 500.5 -133.5Q527 -156 527 -204Q527 -232 516.0 -253.0Q505 -274 482.5 -285.5Q460 -297 425 -297H206ZM206 -406H416Q446 -406 466.5 -417.0Q487 -428 497.5 -447.0Q508 -466 508 -489Q508 -533 484.5 -554.0Q461 -575 423 -575H206Z M1102 0V-686H1637V-575H1232V-406H1593V-295H1232V-111H1643V0Z M2292 0V-279L2028 -686H2178L2359 -396H2364L2543 -686H2685L2422 -279V0Z M3391 12Q3284 12 3206.0 -26.5Q3128 -65 3086.5 -144.0Q3045 -223 3045 -343Q3045 -464 3086.5 -542.5Q3128 -621 3206.0 -659.5Q3284 -698 3391 -698Q3499 -698 3576.5 -659.5Q3654 -621 3695.5 -542.5Q3737 -464 3737 -343Q3737 -223 3695.5 -144.0Q3654 -65 3576.5 -26.5Q3499 12 3391 12ZM3391 -98Q3443 -98 3482.5 -113.0Q3522 -128 3549.0 -157.5Q3576 -187 3590.0 -230.5Q3604 -274 3604 -331V-353Q3604 -411 3590.0 -455.0Q3576 -499 3549.0 -528.5Q3522 -558 3482.5 -573.0Q3443 -588 3391 -588Q3339 -588 3299.5 -573.0Q3260 -558 3233.0 -528.5Q3206 -499 3192.5 -455.0Q3179 -411 3179 -353V-331Q3179 -274 3192.5 -230.5Q3206 -187 3233.0 -157.5Q3260 -128 3299.5 -113.0Q3339 -98 3391 -98Z M4178 0V-686H4302L4595 -281Q4600 -275 4607.0 -264.5Q4614 -254 4620.0 -244.0Q4626 -234 4628 -228H4633Q4633 -242 4633.0 -255.0Q4633 -268 4633 -281V-686H4758V0H4635L4341 -408Q4333 -420 4322.5 -437.5Q4312 -455 4308 -462H4303Q4303 -449 4303.0 -435.5Q4303 -422 4303 -408V0Z M5230 0V-686H5505Q5609 -686 5683.0 -649.0Q5757 -612 5797.0 -536.5Q5837 -461 5837 -343Q5837 -226 5797.0 -150.0Q5757 -74 5683.0 -37.0Q5609 0 5505 0ZM5360 -111H5505Q5553 -111 5590.0 -125.0Q5627 -139 5652.0 -166.5Q5677 -194 5690.0 -235.5Q5703 -277 5703 -332V-353Q5703 -409 5690.0 -450.5Q5677 -492 5652.0 -519.5Q5627 -547 5590.0 -561.0Q5553 -575 5505 -575H5360Z M6966 0V-574H6747V-686H7316V-574H7096V0Z M7737 0V-686H7867V-407H8187V-686H8317V0H8187V-295H7867V0Z M8789 0V-686H9324V-575H8919V-406H9280V-295H8919V-111H9330V0Z M10301 0V-686H10675Q10730 -686 10773.5 -665.0Q10817 -644 10842.0 -606.0Q10867 -568 10867 -517Q10867 -478 10852.0 -446.0Q10837 -414 10811.5 -392.5Q10786 -371 10754 -360V-356Q10792 -348 10822.0 -325.5Q10852 -303 10869.0 -268.5Q10886 -234 10886 -189Q10886 -125 10857.5 -83.0Q10829 -41 10781.5 -20.5Q10734 0 10675 0ZM10431 -111H10658Q10699 -111 10725.5 -133.5Q10752 -156 10752 -204Q10752 -232 10741.0 -253.0Q10730 -274 10707.5 -285.5Q10685 -297 10650 -297H10431ZM10431 -406H10641Q10671 -406 10691.5 -417.0Q10712 -428 10722.5 -447.0Q10733 -466 10733 -489Q10733 -533 10709.5 -554.0Q10686 -575 10648 -575H10431Z M11256 0 11523 -686H11687L11955 0H11814L11759 -146H11445L11390 0ZM11486 -256H11717L11648 -442Q11644 -452 11638.5 -467.5Q11633 -483 11627.0 -501.5Q11621 -520 11615.0 -539.0Q11609 -558 11604 -573H11599Q11593 -553 11584.5 -527.0Q11576 -501 11568.0 -478.0Q11560 -455 11555 -442Z M12356 0V-686H12486V-113H12830V0Z M13175 0 13442 -686H13606L13874 0H13733L13678 -146H13364L13309 0ZM13405 -256H13636L13567 -442Q13563 -452 13557.5 -467.5Q13552 -483 13546.0 -501.5Q13540 -520 13534.0 -539.0Q13528 -558 13523 -573H13518Q13512 -553 13503.5 -527.0Q13495 -501 13487.0 -478.0Q13479 -455 13474 -442Z M14275 0V-686H14399L14692 -281Q14697 -275 14704.0 -264.5Q14711 -254 14717.0 -244.0Q14723 -234 14725 -228H14730Q14730 -242 14730.0 -255.0Q14730 -268 14730 -281V-686H14855V0H14732L14438 -408Q14430 -420 14419.5 -437.5Q14409 -455 14405 -462H14400Q14400 -449 14400.0 -435.5Q14400 -422 14400 -408V0Z M15629 12Q15524 12 15449.5 -25.0Q15375 -62 15335.5 -140.5Q15296 -219 15296 -343Q15296 -524 15384.0 -611.0Q15472 -698 15629 -698Q15714 -698 15782.5 -669.0Q15851 -640 15891.5 -581.5Q15932 -523 15932 -433H15799Q15799 -483 15777.5 -517.5Q15756 -552 15718.0 -570.0Q15680 -588 15631 -588Q15563 -588 15518.0 -561.5Q15473 -535 15451.5 -483.0Q15430 -431 15430 -354V-332Q15430 -254 15451.5 -202.0Q15473 -150 15517.5 -124.0Q15562 -98 15631 -98Q15683 -98 15722.0 -115.5Q15761 -133 15782.5 -167.5Q15804 -202 15804 -252H15932Q15932 -162 15892.0 -103.5Q15852 -45 15783.5 -16.5Q15715 12 15629 12Z M16368 0V-686H16903V-575H16498V-406H16859V-295H16498V-111H16909V0Z M18136 12Q18079 12 18027.0 -0.5Q17975 -13 17935.0 -39.5Q17895 -66 17872.0 -105.5Q17849 -145 17849 -199Q17849 -205 17849.5 -211.0Q17850 -217 17850 -220H17981Q17981 -218 17980.5 -212.5Q17980 -207 17980 -203Q17980 -170 17999.0 -146.5Q18018 -123 18054.0 -110.5Q18090 -98 18139 -98Q18172 -98 18197.5 -102.0Q18223 -106 18241.5 -113.5Q18260 -121 18272.0 -131.5Q18284 -142 18289.5 -155.0Q18295 -168 18295 -183Q18295 -212 18277.0 -231.0Q18259 -250 18228.5 -263.0Q18198 -276 18159.5 -286.5Q18121 -297 18080.5 -308.0Q18040 -319 18001.5 -334.5Q17963 -350 17932.5 -372.0Q17902 -394 17884.0 -427.5Q17866 -461 17866 -508Q17866 -556 17886.5 -592.0Q17907 -628 17944.5 -651.5Q17982 -675 18032.0 -686.5Q18082 -698 18141 -698Q18196 -698 18244.5 -686.5Q18293 -675 18330.0 -650.5Q18367 -626 18388.0 -588.5Q18409 -551 18409 -499V-487H18280V-497Q18280 -526 18262.5 -546.0Q18245 -566 18213.5 -577.0Q18182 -588 18140 -588Q18095 -588 18063.0 -579.5Q18031 -571 18014.0 -554.5Q17997 -538 17997 -514Q17997 -489 18015.0 -472.0Q18033 -455 18063.5 -443.0Q18094 -431 18132.5 -421.0Q18171 -411 18211.5 -399.5Q18252 -388 18290.5 -373.0Q18329 -358 18359.5 -335.5Q18390 -313 18408.0 -280.0Q18426 -247 18426 -201Q18426 -124 18388.5 -77.0Q18351 -30 18285.5 -9.0Q18220 12 18136 12Z M18867 0V-686H18997V-407H19317V-686H19447V0H19317V-295H18997V0Z M19919 0V-686H20454V-575H20049V-406H20410V-295H20049V-111H20460V0Z M20911 0V-686H21446V-575H21041V-406H21402V-295H21041V-111H21452V0Z M22071 0V-574H21852V-686H22421V-574H22201V0Z" fill="#C29A3B"/></g>
</svg>